<svg xmlns="http://www.w3.org/2000/svg" width="200" height="106" xmlns:v="https://vecta.io/nano"><defs><path d="M7.677 92.729c2.151 4.389 4.83 8.596 7.959 12.271.029-.014.038-.048.024-.077-1.093-2.156-2.151-4.313-3.143-6.488-4.451-9.804-6.795-19.684-2.736-30.049.68-1.859 1.543-3.718 2.458-5.477 1.505-2.88 3.225-5.669 5.055-8.405l-4.648-1.845C4.385 65.478.437 77.831 7.677 92.729m1.845-63.418c-.125 3.335 2.482 6.143 5.817 6.263s6.143-2.482 6.263-5.817-2.482-6.143-5.817-6.263h-.225a6.05 6.05 0 0 0-6.038 5.822M6.781 16.579C2.651 20.508-.272 26.493.02 32.416c.144 4.451 2.104 8.75 5.113 11.989 2.238 2.425 5.031 4.351 8.002 5.769a31.44 31.44 0 0 0 1.423.637c1.653.685 3.301 1.399 4.911 2.19 1.399.69 2.77 1.433 4.083 2.271 2.827 1.845 5.616 4.188 6.301 7.542.58 3.071-.139 6.732-1.878 9.353-.565.882-1.289 1.72-2.027 2.473-3.139 3.048-7.068 5.022-10.987 6.914-.024.01-.034.034-.029.058s.034.048.062.043c2.784-.546 5.554-1.342 8.175-2.482 5.122-2.314 9.008-5.764 10.364-11.443 2.401-9.133-3.881-14.83-11.05-18.659-1.116-.594-2.257-1.15-3.388-1.663-.762-.359-1.84-.791-2.621-1.136l-.129-.058c-1.95-.824-3.781-1.806-5.477-3.019-9.382-6.737-9.19-17.049-4.001-26.565.024-.038-.014-.077-.053-.077-.01 0-.024.005-.034.014M33.327.005c-.034.005-.053.038-.048.067l.585 3.565a60.21 60.21 0 0 1 .527 4.437c.321 3.752.235 7.585-.599 11.265a29.07 29.07 0 0 1-1.883 5.625c-1.299 2.889-2.976 5.515-4.854 8.117-2.851 3.905-5.894 7.662-8.812 11.548l4.538 2.108 6.934-9.617c3.354-4.921 6.234-10.345 7.096-16.316 1.059-7.073-.652-14.289-3.426-20.772-.01-.019-.029-.034-.053-.034" id="A"/><radialGradient cx="40.2595151%" cy="22.9464677%" fx="40.2595151%" fy="22.9464677%" r="150.571536%" gradientTransform="translate(0.4026, 0.2295), scale(1, 0.3633), translate(-0.4026, -0.2295)" id="B"><stop stop-color="#258cc8" offset="0%"/><stop stop-color="#002f46" offset="100%"/></radialGradient><path id="C" d="M72.715 23.268l.546-.163v11.658h-.546z"/><path id="D" d="M124.68 29.771h-4.993l-2.166 4.993h-.594l5.261-11.989 5.261 11.989h-.594l-2.166-4.993h-.01zm-.216-.513l-2.281-5.242-2.266 5.242h4.547z"/><path id="E" d="M181.577 34.035l.196-.494a2.99 2.99 0 0 0 2.166.891c1.572 0 2.578-1.093 2.578-3.091v-8.069l.546-.163v8.27c0 2.281-1.208 3.57-3.11 3.57-.925 0-1.72-.297-2.381-.91"/><path id="F" d="M49.542 42.828l.546-.168v11.663h-.546z"/></defs><g transform="translate(0 .5)" fill-rule="evenodd"><g fill="#827c7d" fill-rule="nonzero"><path d="M50.007 28.908h4.198v.513h-4.198v5.343h-.546V23.187h5.506l.115.513h-5.074zm7.758-5.64l.541-.163v11.658h-.541zm4.216 10.983h7.969l-.096.513h-8.898L69.073 23.7h-7.719l.115-.513h8.615z"/><use href="#C"/><path d="M82.47 34.764l-5.405-5.822v5.822h-.546V23.268l.546-.163v5.592l5.256-5.51h.728l-5.41 5.625 5.558 5.951zm9.498-4.993h-4.993l-2.166 4.993h-.594l5.261-11.989 5.261 11.989h-.594l-2.166-4.993h-.01zm-.216-.513l-2.281-5.242-2.266 5.242h4.547 0zm10.896 4.993l-.096.513h-5.808V23.268l.546-.163V34.25zm12.257.877l-9.176-10.868v10.503h-.546v-11.94l9.176 10.868V23.268l.546-.182z"/><use href="#D"/><path d="M135.898 23.7v11.064h-.546V23.7h-3.79l.101-.513h7.906l.115.513zm11.84 10.551l-.101.513h-5.985V23.187h5.803l.115.513h-5.371v4.763h4.547v.513h-4.547v5.276zm7.676.513l-4.566-4.811v4.811h-.546V23.187h1.883c2.214 0 3.771 1.438 3.771 3.44s-1.553 3.426-3.752 3.426h-.561l4.499 4.715h-.728v-.005zm-4.566-5.194h1.342c1.902 0 3.21-1.241 3.21-2.942s-1.308-2.928-3.21-2.928h-1.342v5.87z"/><use href="#D" x="40.672"/><path d="M176.186 26.977c0 2.166-1.672 3.785-4.25 3.785h-1.255v4.001h-.546V23.187h1.802c2.578 0 4.25 1.62 4.25 3.785m-.546 0c0-1.869-1.438-3.273-3.704-3.273h-1.255v6.531h1.255c2.266 0 3.704-1.39 3.704-3.258"/><use href="#C" x="106.083"/><use href="#E"/><use href="#D" x="71.569"/><use href="#F"/><path d="M62.077 54.323l-4.566-4.811v4.811h-.546V42.747h1.883c2.214 0 3.771 1.438 3.771 3.44s-1.553 3.426-3.752 3.426h-.561l4.499 4.715h-.728v-.005zm-4.566-5.194h1.342c1.902 0 3.21-1.241 3.21-2.942s-1.308-2.928-3.21-2.928h-1.342v5.87zm13.996 4.682l-.101.513h-5.985V42.747h5.803l.115.513h-5.371v4.763h4.547v.513h-4.547v5.276zM83.611 42.66v11.663h-.541v-5.64h-8.453v5.64h-.546V42.828l.546-.168v5.51h8.453v-5.343zm9.78 6.666h-4.993l-2.166 4.993h-.594l5.261-11.989 5.261 11.989h-.594L93.4 49.326h-.01zm-.216-.513l-2.281-5.242-2.266 5.242h4.547 0zm11.198 2.482c0 1.701-1.289 3.028-3.623 3.028h-2.583V42.747h2.549c2.017 0 3.393 1.208 3.393 2.909 0 1.356-.863 2.396-2.233 2.76 1.524.331 2.496 1.39 2.496 2.88m-5.659-8.036v4.945h2.003c1.687 0 2.827-1.059 2.827-2.516s-1.14-2.429-2.827-2.429h-2.003 0zm5.094 8.007c0-1.505-1.193-2.516-2.928-2.53l-2.166-.014v5.094h2.036c2.003 0 3.062-1.107 3.062-2.544"/><use href="#F" x="57.591"/><path d="M116.841 53.811l-.101.513h-5.803V42.828l.546-.168v11.15z"/><use href="#F" x="69.911"/><path d="M126.401 43.259v11.064h-.546V43.259h-3.785l.101-.513h7.901l.12.513z"/><use href="#D" x="12.588" y="19.555"/><path d="M140.857 48.535c0-3.34 2.611-5.956 5.99-5.956 1.006 0 1.95.23 2.794.661l-.115.546a5.56 5.56 0 0 0-2.698-.695c-3.028 0-5.41 2.396-5.41 5.439s2.362 5.439 5.41 5.439c1.059 0 2.017-.283 2.846-.776l.115.546c-.891.479-1.883.743-2.961.743-3.359 0-5.97-2.611-5.97-5.956"/><use href="#F" x="103.174"/><use href="#E" x="-26.081" y="19.56"/><use href="#D" x="45.483" y="19.555"/></g><path d="M65.139 65.742c1.145.23 2.065.541 2.76.939.187.115.307.225.364.331s.101.273.12.503l.383 3.646c0 .072-.058.11-.173.12s-.187-.019-.206-.086c-.834-3.378-3.508-5.07-8.021-5.07-1.806 0-3.397.388-4.773 1.164s-2.449 1.869-3.21 3.282-1.145 3.043-1.145 4.897c0 2.175.474 4.183 1.423 6.023s2.209 3.297 3.785 4.375 3.273 1.615 5.103 1.615c1.711 0 3.186-.45 4.428-1.356s2.147-2.281 2.726-4.13c0-.072.048-.105.139-.105.072 0 .134.014.192.034s.086.058.086.105l-.484 3.714c-.048.278-.101.455-.158.537s-.192.168-.398.259c-2.06.901-4.269 1.356-6.632 1.356-2.779 0-5.094-.561-6.943-1.682s-3.215-2.559-4.097-4.303-1.318-3.584-1.318-5.501c0-2.108.589-3.996 1.773-5.678s2.741-2.985 4.686-3.924a14.04 14.04 0 0 1 6.181-1.409 16.99 16.99 0 0 1 3.421.35m-8.036-1.806c-.091 0-.149-.053-.173-.153s0-.177.067-.225c1.064-.484 2.477-1.236 4.236-2.257l1.735-.973c.091-.048.331 0 .714.139s.719.297 1.006.47.355.273.192.297c-1.433.345-2.75.733-3.939 1.164l-3.766 1.509-.072.034v-.005zm40.157 23.329c0 .139-.048.206-.139.206-.417 0-1.088-.024-2.013-.067l-1.945-.072-1.907.072-1.668.067c-.091 0-.139-.067-.139-.206s.048-.211.139-.211c.949 0 1.634-.086 2.046-.259s.628-.47.628-.886c0-.326-.129-.776-.383-1.356l-7.849-16.871.661-.589-6.699 16.11c-.326.786-.489 1.433-.489 1.945 0 .671.278 1.16.834 1.457s1.423.45 2.607.45c.115 0 .173.072.173.211s-.058.206-.173.206c-.417 0-1.021-.024-1.806-.067l-2.29-.072-2.046.072-1.701.067c-.115 0-.173-.067-.173-.206s.058-.211.173-.211c.647 0 1.198-.115 1.648-.345s.882-.647 1.284-1.251.839-1.457 1.303-2.568l7.255-17.466c.048-.072.12-.105.225-.105s.168.034.192.105l8.055 17.288c.532 1.179 1.006 2.08 1.423 2.688s.829 1.04 1.231 1.284.872.364 1.404.364c.091 0 .139.072.139.211M80.918 75.042h7.154l.244.661H80.4l.522-.661h-.005zm36.129-9.3c1.145.23 2.065.541 2.76.939.187.115.307.225.364.331s.101.273.12.503l.383 3.646c0 .072-.057.11-.173.12s-.187-.019-.206-.086c-.834-3.378-3.508-5.07-8.021-5.07-1.806 0-3.397.388-4.773 1.164s-2.449 1.869-3.21 3.282-1.145 3.043-1.145 4.897c0 2.175.474 4.183 1.423 6.023s2.209 3.297 3.785 4.375 3.273 1.615 5.103 1.615c1.711 0 3.186-.45 4.428-1.356s2.147-2.281 2.726-4.13c0-.072.048-.105.139-.105.072 0 .134.014.192.034s.086.058.086.105l-.484 3.714c-.048.278-.101.455-.158.537s-.192.168-.398.259c-2.06.901-4.269 1.356-6.632 1.356-2.779 0-5.094-.561-6.943-1.682s-3.215-2.559-4.097-4.303S101 78.325 101 76.408c0-2.108.589-3.996 1.773-5.678s2.741-2.985 4.686-3.924a14.04 14.04 0 0 1 6.181-1.409 16.99 16.99 0 0 1 3.421.35m-8.036-1.806c-.091 0-.149-.053-.172-.153s0-.177.067-.225c1.064-.484 2.477-1.236 4.236-2.257l1.735-.973c.091-.048.331 0 .714.139s.719.297 1.006.47.355.273.192.297c-1.433.345-2.75.733-3.939 1.164l-3.766 1.509-.072.034v-.005zm40.155 23.33c0 .139-.048.206-.139.206-.417 0-1.088-.024-2.013-.067l-1.945-.072-1.907.072-1.668.067c-.091 0-.139-.067-.139-.206s.048-.211.139-.211c.949 0 1.634-.086 2.046-.259s.628-.47.628-.886c0-.326-.129-.776-.383-1.356l-7.849-16.871.661-.589-6.699 16.11c-.326.786-.489 1.433-.489 1.945 0 .671.278 1.16.834 1.457s1.423.45 2.607.45c.115 0 .172.072.172.211s-.057.206-.172.206c-.417 0-1.021-.024-1.806-.067l-2.29-.072-2.046.072-1.701.067c-.115 0-.172-.067-.172-.206s.058-.211.172-.211c.647 0 1.198-.115 1.648-.345s.882-.647 1.284-1.251.839-1.457 1.303-2.568l7.255-17.466c.048-.072.12-.105.225-.105s.168.034.192.105l8.055 17.288c.532 1.179 1.006 2.08 1.423 2.688s.829 1.04 1.231 1.284.872.364 1.404.364c.091 0 .139.072.139.211m-16.354-12.224h7.154l.244.661h-7.916l.522-.661h-.005zm22.531-8.466l.762.072v17.221c0 1.179.196 2.008.589 2.482s1.078.709 2.051.709c.072 0 .105.072.105.211s-.034.206-.105.206a17.6 17.6 0 0 1-1.284-.034l-1.668-.034-1.701.034c-.302.024-.752.034-1.356.034-.048 0-.072-.067-.072-.206s.024-.211.072-.211c.997 0 1.677-.23 2.051-.695s.556-1.299.556-2.501V66.576h0zm17.288 21.39c-.115.024-.196.01-.244-.034l-15.693-19.306c-.743-.901-1.418-1.533-2.032-1.893s-1.222-.537-1.821-.537c-.072 0-.105-.067-.105-.206s.034-.211.105-.211l1.251.034a12.45 12.45 0 0 0 1.078.034l.973-.034.589-.034c.163 0 .297.038.398.12s.225.249.364.503c.254.417.532.81.834 1.179l14.203 17.638.278 2.64c0 .048-.058.081-.173.105m.173-.105l-.762-1.078v-17.36c0-1.179-.187-2.013-.556-2.501s-1.04-.728-2.013-.728c-.048 0-.072-.067-.072-.206s.024-.211.072-.211l1.318.034 1.668.072 1.701-.072 1.356-.034c.072 0 .105.072.105.211s-.034.206-.105.206c-.997 0-1.696.244-2.099.728s-.609 1.318-.609 2.501V87.86h-.005z" fill-rule="nonzero" fill="#002f46"/><mask id="G" fill="#fff"><use href="#A"/></mask><path fill="url(#B)" fill-rule="nonzero" mask="url(#G)" d="M-.272.005h38.147V105H-.272z"/></g></svg>